<svg xmlns="http://www.w3.org/2000/svg" viewBox="0 0 420 520" role="img" aria-label="Süßer Hase">
    <defs>
      <linearGradient id="cloth" x1="0" y1="0" x2="0.7" y2="1"><stop offset="0" stop-color="#ef94c9"/><stop offset="0.55" stop-color="#8d5f86"/><stop offset="1" stop-color="#09090d"/></linearGradient>
      <linearGradient id="metal" x1="0" y1="0" x2="1" y2="1"><stop offset="0" stop-color="#e0e3e7"/><stop offset="0.12" stop-color="#6c737c"/><stop offset="0.48" stop-color="#22262c"/><stop offset="0.8" stop-color="#8d5f86"/><stop offset="1" stop-color="#101216"/></linearGradient>
      <linearGradient id="accent" x1="0" y1="0" x2="1" y2="1"><stop offset="0" stop-color="#fff4fc"/><stop offset="1" stop-color="#ef94c9"/></linearGradient>
      <radialGradient id="glow"><stop offset="0" stop-color="#fff4fc" stop-opacity=".65"/><stop offset="1" stop-color="#fff4fc" stop-opacity="0"/></radialGradient>
      <filter id="soft" x="-40%" y="-40%" width="180%" height="180%"><feGaussianBlur stdDeviation="3"/></filter>
    </defs>
    <ellipse cx="210" cy="493" rx="96" ry="13" fill="#000" opacity=".32"/>
    <g><path d="M177 196 Q159 251 177 330 Q210 355 243 330 Q261 251 243 196 Q210 177 177 196Z" fill="#efe5e6" stroke="#2e2530" stroke-width="8"/><path d="M188 337 Q179 396 178 475 M232 337 Q241 396 242 475" stroke="#e7dadb" stroke-width="24" stroke-linecap="round"/><path d="M170 480 H194 M226 480 H250" stroke="#bd7fa5" stroke-width="17" stroke-linecap="round"/><ellipse cx="210" cy="150" rx="36" ry="40" fill="#f3e6e4" stroke="#2e2530" stroke-width="7"/><path d="M190 121 Q174 71 185 44 Q209 67 205 120 M230 121 Q246 71 235 44 Q211 67 215 120" fill="#f3e6e4" stroke="#2e2530" stroke-width="7"/><path d="M193 68 Q193 88 196 105 M227 68 Q227 88 224 105" stroke="#ed9bc6" stroke-width="8"/><circle cx="196" cy="151" r="4" fill="#24212a"/><circle cx="224" cy="151" r="4" fill="#24212a"/><path d="M204 167 Q210 173 216 167" fill="none" stroke="#c46b93" stroke-width="3"/><path d="M176 215 Q210 190 244 215 L237 303 Q210 326 183 303Z" fill="#c16d9d" opacity=".75" stroke="#2d1b2a" stroke-width="5"/><path d="M272 350 L358 241" stroke="#6d4a24" stroke-width="10"/><path d="M346 249 L378 211 L391 228 L363 261Z" fill="#e88022" stroke="#6d4a24" stroke-width="5"/><path d="M378 211 L385 190 M378 211 L401 199" stroke="#5a9d39" stroke-width="7"/><path d="M194 252 Q199 240 210 250 Q221 240 226 252 Q226 266 210 279 Q194 266 194 252Z" fill="#ef94c9" opacity=".85"/></g>
    </svg>