<svg xmlns="http://www.w3.org/2000/svg" viewBox="0 0 420 520" role="img" aria-label="Toxic Fighter">
    <defs>
      <linearGradient id="cloth" x1="0" y1="0" x2="0.7" y2="1"><stop offset="0" stop-color="#9cc51e"/><stop offset="0.55" stop-color="#3c4a11"/><stop offset="1" stop-color="#09090d"/></linearGradient>
      <linearGradient id="metal" x1="0" y1="0" x2="1" y2="1"><stop offset="0" stop-color="#e0e3e7"/><stop offset="0.12" stop-color="#6c737c"/><stop offset="0.48" stop-color="#22262c"/><stop offset="0.8" stop-color="#3c4a11"/><stop offset="1" stop-color="#101216"/></linearGradient>
      <linearGradient id="accent" x1="0" y1="0" x2="1" y2="1"><stop offset="0" stop-color="#e6ff73"/><stop offset="1" stop-color="#9cc51e"/></linearGradient>
      <radialGradient id="glow"><stop offset="0" stop-color="#e6ff73" stop-opacity=".65"/><stop offset="1" stop-color="#e6ff73" stop-opacity="0"/></radialGradient>
      <filter id="soft" x="-40%" y="-40%" width="180%" height="180%"><feGaussianBlur stdDeviation="3"/></filter>
    </defs>
    <ellipse cx="210" cy="493" rx="96" ry="13" fill="#000" opacity=".32"/>
    <g><path d="M184 315 C178 355 172 400 169 463 C172 481 195 485 203 465 L206 338Z" fill="#16171b" stroke="#08090d" stroke-width="8"/><path d="M236 315 C242 355 248 400 251 463 C248 481 225 485 217 465 L214 338Z" fill="#111217" stroke="#08090d" stroke-width="8"/><path d="M160 456 Q182 447 200 458 L204 490 L151 490Z" fill="#3c4a11" stroke="#07080c" stroke-width="7"/><path d="M220 458 Q238 447 260 456 L269 490 L216 490Z" fill="#3c4a11" stroke="#07080c" stroke-width="7"/><path d="M172.0 205 Q156.8 248 178.1 315 Q210.0 335 241.9 315 Q263.2 248 248.0 205 Q210.0 179 172.0 205Z" fill="url(#cloth)" stroke="#07080c" stroke-width="8"/><path d="M168.0 211 Q153.0 213 150.7 245 Q168.2 236 181.1 226Z" fill="#3c4a11" stroke="#08090d" stroke-width="6"/><path d="M252.0 211 Q267.0 213 269.3 245 Q251.8 236 238.9 226Z" fill="#3c4a11" stroke="#08090d" stroke-width="6"/><path d="M170.5 225 C141.6 260 132.0 315 156.0 351" fill="none" stroke="#b8a17f" stroke-width="33" stroke-linecap="round"/><path d="M249.5 225 C278.4 253 291.0 302 274.0 344" fill="none" stroke="#b8a17f" stroke-width="33" stroke-linecap="round"/><path d="M170.5 225 C141.6 260 132.0 315 156.0 351" fill="none" stroke="#3c4a11" stroke-width="18.2" stroke-linecap="round" opacity=".9"/><path d="M249.5 225 C278.4 253 291.0 302 274.0 344" fill="none" stroke="#3c4a11" stroke-width="18.2" stroke-linecap="round" opacity=".9"/><path d="M195 187 L196 207 Q210 218 224 207 L225 187Z" fill="#b8a17f" stroke="#09090c" stroke-width="5"/><ellipse cx="210" cy="151" rx="34" ry="41" fill="#b8a17f" stroke="#08090d" stroke-width="7"/><path d="M190 159 Q198 154 206 159 M214 159 Q222 154 230 159" fill="none" stroke="#171216" stroke-width="3" stroke-linecap="round"/><path d="M204 177 Q210 181 216 177" fill="none" stroke="#6a4438" stroke-width="2"/><path d="M174 142 Q210 125 246 142 L239 166 Q210 176 181 166Z" fill="#09141a" stroke="#9cc51e" stroke-width="5"/><path d="M185 151 L235 151" stroke="#e6ff73" stroke-width="4"/><path d="M272 350 L341 279" stroke="#4b3d32" stroke-width="14"/><rect x="312.0" y="230.0" width="50" height="50" rx="14" fill="#9cc51e" stroke="#08090c" stroke-width="8"/><path d="M323.0 268 H351.0" stroke="#e6ff73" stroke-width="5"/><path d="M210 240 L224 258 L210 281 L196 258Z" fill="none" stroke="#9cc51e" stroke-width="4"/><circle cx="210" cy="151" r="43" fill="#87921d" opacity=".42" stroke="#22280b" stroke-width="6"/><path d="M174 153 H246" stroke="#161a0d" stroke-width="15"/><circle cx="192" cy="153" r="7" fill="#e6ff73"/><circle cx="228" cy="153" r="7" fill="#e6ff73"/><rect x="180" y="176" width="60" height="27" rx="8" fill="#323620" stroke="#111" stroke-width="5"/><rect x="135" y="240" width="32" height="78" rx="13" fill="#596511" stroke="#1a1d0c" stroke-width="6"/></g>
    </svg>