<svg xmlns="http://www.w3.org/2000/svg" viewBox="0 0 420 520" role="img" aria-label="Kawaii Destroyer"><defs>
<linearGradient id="metal" x1="0" y1="0" x2="1" y2="1"><stop offset="0" stop-color="#f7f7f7"/><stop offset=".18" stop-color="#f28fc0"/><stop offset=".58" stop-color="#292d34"/><stop offset="1" stop-color="#08090c"/></linearGradient>
<linearGradient id="cloth" x1="0" y1="0" x2="0.9" y2="1"><stop offset="0" stop-color="#f28fc0"/><stop offset=".48" stop-color="#5c2b4a"/><stop offset="1" stop-color="#07080b"/></linearGradient>
<linearGradient id="dark" x1="0" y1="0" x2="1" y2="1"><stop offset="0" stop-color="#262933"/><stop offset=".55" stop-color="#0c0e13"/><stop offset="1" stop-color="#020306"/></linearGradient>
<filter id="shadow" x="-60%" y="-60%" width="220%" height="220%"><feDropShadow dx="0" dy="7" stdDeviation="5" flood-color="#000" flood-opacity=".7"/></filter>
<filter id="glow" x="-120%" y="-120%" width="340%" height="340%"><feGaussianBlur stdDeviation="7" result="b"/><feMerge><feMergeNode in="b"/><feMergeNode in="SourceGraphic"/></feMerge></filter>
<filter id="soft" x="-100%" y="-100%" width="300%" height="300%"><feGaussianBlur stdDeviation="12"/></filter>
</defs>
<ellipse cx="210" cy="497" rx="120" ry="15" fill="#000" opacity=".42"/><g filter="url(#shadow)">
<!-- cute but dangerous --> <ellipse cx="210" cy="142" rx="35" ry="38" fill="#f5c7d8" stroke="#3a2033" stroke-width="7"/><path d="M173 135 Q179 100 210 98 Q241 100 247 135" fill="#f07bb4"/><path d="M181 112 L168 78 L195 102 M239 112 L252 78 L225 102" fill="#f7a9cf" stroke="#6b3154" stroke-width="5"/><path d="M190 147 H201 M219 147 H230" stroke="#5c2b4a" stroke-width="5"/><path d="M204 159 Q210 165 216 159" stroke="#5c2b4a" stroke-width="3" fill="none"/>
<path d="M162 201 Q210 173 258 201 L249 337 Q210 362 171 337Z" fill="#7c315f" stroke="#4b233d" stroke-width="8"/><path d="M180 215 L210 195 L240 215 L234 304 L210 327 L186 304Z" fill="#f39cc8" stroke="#ffffff" stroke-width="5"/>
<path d="M168 226 Q142 258 151 318 M252 226 Q278 258 269 318" stroke="#e7b3c8" stroke-width="24" stroke-linecap="round"/>
<path d="M184 338 L176 447 L194 484 M236 338 L244 447 L226 484" stroke="#4d2540" stroke-width="29" stroke-linecap="round"/>
<!-- huge hammer --> <path d="M270 355 L342 244" stroke="#513047" stroke-width="18"/><rect x="315" y="186" width="88" height="62" rx="18" fill="#f28fc0" stroke="#fff" stroke-width="7"/><path d="M336 211 Q348 194 360 211 Q348 231 336 211Z" fill="#fff"/><path d="M331 221 Q348 241 365 221" fill="none" stroke="#7c315f" stroke-width="5"/>
</g></svg>